<svg xmlns="http://www.w3.org/2000/svg" xmlns:xlink="http://www.w3.org/1999/xlink" width="500" zoomAndPan="magnify" viewBox="0 0 375 74.999997" height="100" preserveAspectRatio="xMidYMid meet" version="1.0"><defs><g/><clipPath id="22f1eaabf3"><path d="M 183.398438 28.277344 L 196.898438 28.277344 L 196.898438 41.777344 L 183.398438 41.777344 Z M 183.398438 28.277344 " clip-rule="nonzero"/></clipPath><clipPath id="95c3cbdff3"><rect x="0" width="64" y="0" height="21"/></clipPath></defs><g clip-path="url(#22f1eaabf3)"><path fill="#000000" d="M 190.878906 40.605469 C 189.128906 38.503906 187.761719 35.535156 188.296875 34.992188 C 189.105469 34.179688 192.304688 34.03125 193.25 34.769531 C 194.058594 35.398438 194.042969 35.425781 192.773438 35.4375 C 192.046875 35.445312 191.097656 35.78125 190.65625 36.1875 C 190.214844 36.59375 190.089844 36.769531 190.378906 36.574219 C 191.480469 35.835938 192.777344 36.589844 194.800781 39.140625 L 196.890625 41.777344 L 194.371094 41.777344 C 192.136719 41.777344 191.75 41.648438 190.878906 40.605469 Z M 184.867188 31.042969 C 184.0625 29.777344 183.402344 28.636719 183.402344 28.511719 C 183.402344 28.382812 183.933594 28.277344 184.578125 28.277344 C 185.722656 28.277344 186.222656 28.699219 189.246094 32.179688 L 190.253906 33.339844 L 188.289062 33.339844 C 186.371094 33.339844 186.296875 33.289062 184.867188 31.042969 Z M 184.867188 31.042969 " fill-opacity="1" fill-rule="nonzero"/></g><g transform="matrix(1, 0, 0, 1, 123, 24)"><g clip-path="url(#95c3cbdff3)"><g fill="#000000" fill-opacity="1"><g transform="translate(0.525906, 16.243672)"><g><path d="M 1.828125 -11.1875 L 3 -11.1875 L 3 -1.015625 L 9.265625 -1.015625 L 9.265625 0 L 1.828125 0 Z M 1.828125 -11.1875 "/></g></g></g><g fill="#000000" fill-opacity="1"><g transform="translate(9.967291, 16.243672)"><g><path d="M 4.53125 -8.46875 C 5.625 -8.46875 6.460938 -8.191406 7.046875 -7.640625 C 7.628906 -7.097656 7.921875 -6.285156 7.921875 -5.203125 L 7.921875 0 L 6.84375 0 L 6.84375 -1.3125 C 6.582031 -0.875 6.203125 -0.53125 5.703125 -0.28125 C 5.210938 -0.0390625 4.628906 0.078125 3.953125 0.078125 C 3.015625 0.078125 2.265625 -0.144531 1.703125 -0.59375 C 1.148438 -1.039062 0.875 -1.628906 0.875 -2.359375 C 0.875 -3.078125 1.128906 -3.65625 1.640625 -4.09375 C 2.160156 -4.53125 2.988281 -4.75 4.125 -4.75 L 6.796875 -4.75 L 6.796875 -5.265625 C 6.796875 -5.984375 6.59375 -6.53125 6.1875 -6.90625 C 5.78125 -7.289062 5.1875 -7.484375 4.40625 -7.484375 C 3.875 -7.484375 3.363281 -7.394531 2.875 -7.21875 C 2.382812 -7.039062 1.960938 -6.796875 1.609375 -6.484375 L 1.109375 -7.34375 C 1.535156 -7.695312 2.046875 -7.972656 2.640625 -8.171875 C 3.234375 -8.367188 3.863281 -8.46875 4.53125 -8.46875 Z M 4.125 -0.8125 C 4.757812 -0.8125 5.304688 -0.957031 5.765625 -1.25 C 6.222656 -1.539062 6.566406 -1.96875 6.796875 -2.53125 L 6.796875 -3.90625 L 4.15625 -3.90625 C 2.71875 -3.90625 2 -3.398438 2 -2.390625 C 2 -1.898438 2.179688 -1.515625 2.546875 -1.234375 C 2.921875 -0.953125 3.445312 -0.8125 4.125 -0.8125 Z M 4.125 -0.8125 "/></g></g></g><g fill="#000000" fill-opacity="1"><g transform="translate(19.392682, 16.243672)"><g><path d="M 5.859375 -8.46875 C 6.921875 -8.46875 7.757812 -8.160156 8.375 -7.546875 C 9 -6.941406 9.3125 -6.050781 9.3125 -4.875 L 9.3125 0 L 8.1875 0 L 8.1875 -4.765625 C 8.1875 -5.640625 7.96875 -6.304688 7.53125 -6.765625 C 7.09375 -7.222656 6.46875 -7.453125 5.65625 -7.453125 C 4.75 -7.453125 4.03125 -7.179688 3.5 -6.640625 C 2.976562 -6.097656 2.71875 -5.351562 2.71875 -4.40625 L 2.71875 0 L 1.578125 0 L 1.578125 -8.40625 L 2.671875 -8.40625 L 2.671875 -6.859375 C 2.984375 -7.367188 3.410156 -7.765625 3.953125 -8.046875 C 4.503906 -8.328125 5.140625 -8.46875 5.859375 -8.46875 Z M 5.859375 -8.46875 "/></g></g></g><g fill="#000000" fill-opacity="1"><g transform="translate(30.239884, 16.243672)"><g><path d="M 9.25 -11.859375 L 9.25 0 L 8.171875 0 L 8.171875 -1.65625 C 7.828125 -1.09375 7.375 -0.660156 6.8125 -0.359375 C 6.257812 -0.0664062 5.628906 0.078125 4.921875 0.078125 C 4.128906 0.078125 3.414062 -0.0976562 2.78125 -0.453125 C 2.144531 -0.816406 1.644531 -1.320312 1.28125 -1.96875 C 0.914062 -2.625 0.734375 -3.367188 0.734375 -4.203125 C 0.734375 -5.035156 0.914062 -5.773438 1.28125 -6.421875 C 1.644531 -7.078125 2.144531 -7.582031 2.78125 -7.9375 C 3.414062 -8.289062 4.128906 -8.46875 4.921875 -8.46875 C 5.609375 -8.46875 6.222656 -8.328125 6.765625 -8.046875 C 7.316406 -7.765625 7.769531 -7.351562 8.125 -6.8125 L 8.125 -11.859375 Z M 5.015625 -0.921875 C 5.597656 -0.921875 6.128906 -1.054688 6.609375 -1.328125 C 7.085938 -1.609375 7.460938 -2 7.734375 -2.5 C 8.003906 -3 8.140625 -3.566406 8.140625 -4.203125 C 8.140625 -4.835938 8.003906 -5.40625 7.734375 -5.90625 C 7.460938 -6.414062 7.085938 -6.804688 6.609375 -7.078125 C 6.128906 -7.347656 5.597656 -7.484375 5.015625 -7.484375 C 4.421875 -7.484375 3.882812 -7.347656 3.40625 -7.078125 C 2.9375 -6.804688 2.566406 -6.414062 2.296875 -5.90625 C 2.023438 -5.40625 1.890625 -4.835938 1.890625 -4.203125 C 1.890625 -3.566406 2.023438 -3 2.296875 -2.5 C 2.566406 -2 2.9375 -1.609375 3.40625 -1.328125 C 3.882812 -1.054688 4.421875 -0.921875 5.015625 -0.921875 Z M 5.015625 -0.921875 "/></g></g></g><g fill="#000000" fill-opacity="1"><g transform="translate(41.071105, 16.243672)"><g><path d="M 8.90625 -3.859375 L 1.875 -3.859375 C 1.9375 -2.984375 2.269531 -2.273438 2.875 -1.734375 C 3.476562 -1.191406 4.242188 -0.921875 5.171875 -0.921875 C 5.703125 -0.921875 6.179688 -1.015625 6.609375 -1.203125 C 7.046875 -1.390625 7.425781 -1.664062 7.75 -2.03125 L 8.390625 -1.296875 C 8.015625 -0.847656 7.546875 -0.503906 6.984375 -0.265625 C 6.429688 -0.0351562 5.816406 0.078125 5.140625 0.078125 C 4.285156 0.078125 3.523438 -0.101562 2.859375 -0.46875 C 2.191406 -0.832031 1.671875 -1.335938 1.296875 -1.984375 C 0.921875 -2.640625 0.734375 -3.378906 0.734375 -4.203125 C 0.734375 -5.023438 0.910156 -5.757812 1.265625 -6.40625 C 1.628906 -7.0625 2.117188 -7.566406 2.734375 -7.921875 C 3.359375 -8.285156 4.0625 -8.46875 4.84375 -8.46875 C 5.625 -8.46875 6.320312 -8.285156 6.9375 -7.921875 C 7.550781 -7.566406 8.035156 -7.066406 8.390625 -6.421875 C 8.742188 -5.773438 8.921875 -5.035156 8.921875 -4.203125 Z M 4.84375 -7.5 C 4.03125 -7.5 3.347656 -7.238281 2.796875 -6.71875 C 2.253906 -6.207031 1.945312 -5.535156 1.875 -4.703125 L 7.828125 -4.703125 C 7.753906 -5.535156 7.441406 -6.207031 6.890625 -6.71875 C 6.347656 -7.238281 5.664062 -7.5 4.84375 -7.5 Z M 4.84375 -7.5 "/></g></g></g><g fill="#000000" fill-opacity="1"><g transform="translate(50.480422, 16.243672)"><g><path d="M 6.9375 0 L 4.265625 -3.515625 L 1.578125 0 L 0.296875 0 L 3.625 -4.3125 L 0.46875 -8.40625 L 1.75 -8.40625 L 4.265625 -5.109375 L 6.796875 -8.40625 L 8.046875 -8.40625 L 4.875 -4.3125 L 8.234375 0 Z M 6.9375 0 "/></g></g></g><g fill="#000000" fill-opacity="1"><g transform="translate(59.020942, 16.243672)"><g/></g></g></g></g><g fill="#000000" fill-opacity="1"><g transform="translate(195.16105, 39.954971)"><g/></g></g><g fill="#000000" fill-opacity="1"><g transform="translate(199.356363, 39.954971)"><g><path d="M 1.828125 -11.203125 L 6.390625 -11.203125 C 7.566406 -11.203125 8.609375 -10.960938 9.515625 -10.484375 C 10.421875 -10.015625 11.125 -9.351562 11.625 -8.5 C 12.132812 -7.65625 12.390625 -6.6875 12.390625 -5.59375 C 12.390625 -4.507812 12.132812 -3.539062 11.625 -2.6875 C 11.125 -1.84375 10.421875 -1.179688 9.515625 -0.703125 C 8.609375 -0.234375 7.566406 0 6.390625 0 L 1.828125 0 Z M 6.3125 -1.03125 C 7.300781 -1.03125 8.160156 -1.222656 8.890625 -1.609375 C 9.628906 -1.992188 10.203125 -2.53125 10.609375 -3.21875 C 11.015625 -3.90625 11.21875 -4.695312 11.21875 -5.59375 C 11.21875 -6.488281 11.015625 -7.28125 10.609375 -7.96875 C 10.203125 -8.664062 9.628906 -9.207031 8.890625 -9.59375 C 8.160156 -9.976562 7.300781 -10.171875 6.3125 -10.171875 L 3.015625 -10.171875 L 3.015625 -1.03125 Z M 6.3125 -1.03125 "/></g></g></g><g fill="#000000" fill-opacity="1"><g transform="translate(212.569184, 39.954971)"><g><path d="M 1.578125 -8.421875 L 2.71875 -8.421875 L 2.71875 0 L 1.578125 0 Z M 2.15625 -10.25 C 1.914062 -10.25 1.71875 -10.328125 1.5625 -10.484375 C 1.40625 -10.648438 1.328125 -10.847656 1.328125 -11.078125 C 1.328125 -11.285156 1.40625 -11.46875 1.5625 -11.625 C 1.71875 -11.789062 1.914062 -11.875 2.15625 -11.875 C 2.382812 -11.875 2.578125 -11.796875 2.734375 -11.640625 C 2.898438 -11.484375 2.984375 -11.300781 2.984375 -11.09375 C 2.984375 -10.851562 2.898438 -10.648438 2.734375 -10.484375 C 2.578125 -10.328125 2.382812 -10.25 2.15625 -10.25 Z M 2.15625 -10.25 "/></g></g></g><g fill="#000000" fill-opacity="1"><g transform="translate(216.87215, 39.954971)"><g><path d="M 9.375 -8.421875 L 9.375 -1.03125 C 9.375 0.40625 9.023438 1.46875 8.328125 2.15625 C 7.628906 2.84375 6.578125 3.1875 5.171875 3.1875 C 4.390625 3.1875 3.648438 3.070312 2.953125 2.84375 C 2.253906 2.613281 1.6875 2.296875 1.25 1.890625 L 1.828125 1.03125 C 2.234375 1.382812 2.722656 1.660156 3.296875 1.859375 C 3.878906 2.066406 4.492188 2.171875 5.140625 2.171875 C 6.203125 2.171875 6.984375 1.921875 7.484375 1.421875 C 7.984375 0.929688 8.234375 0.164062 8.234375 -0.875 L 8.234375 -1.953125 C 7.890625 -1.421875 7.429688 -1.015625 6.859375 -0.734375 C 6.285156 -0.453125 5.648438 -0.3125 4.953125 -0.3125 C 4.171875 -0.3125 3.457031 -0.484375 2.8125 -0.828125 C 2.164062 -1.179688 1.65625 -1.671875 1.28125 -2.296875 C 0.914062 -2.921875 0.734375 -3.628906 0.734375 -4.421875 C 0.734375 -5.203125 0.914062 -5.898438 1.28125 -6.515625 C 1.65625 -7.140625 2.160156 -7.625 2.796875 -7.96875 C 3.441406 -8.3125 4.160156 -8.484375 4.953125 -8.484375 C 5.671875 -8.484375 6.316406 -8.335938 6.890625 -8.046875 C 7.472656 -7.753906 7.9375 -7.335938 8.28125 -6.796875 L 8.28125 -8.421875 Z M 5.078125 -1.328125 C 5.679688 -1.328125 6.226562 -1.457031 6.71875 -1.71875 C 7.207031 -1.976562 7.585938 -2.34375 7.859375 -2.8125 C 8.128906 -3.28125 8.265625 -3.816406 8.265625 -4.421875 C 8.265625 -5.015625 8.128906 -5.539062 7.859375 -6 C 7.585938 -6.46875 7.207031 -6.832031 6.71875 -7.09375 C 6.238281 -7.351562 5.691406 -7.484375 5.078125 -7.484375 C 4.460938 -7.484375 3.910156 -7.351562 3.421875 -7.09375 C 2.941406 -6.84375 2.566406 -6.484375 2.296875 -6.015625 C 2.023438 -5.546875 1.890625 -5.015625 1.890625 -4.421875 C 1.890625 -3.816406 2.023438 -3.28125 2.296875 -2.8125 C 2.566406 -2.34375 2.941406 -1.976562 3.421875 -1.71875 C 3.910156 -1.457031 4.460938 -1.328125 5.078125 -1.328125 Z M 5.078125 -1.328125 "/></g></g></g><g fill="#000000" fill-opacity="1"><g transform="translate(227.845511, 39.954971)"><g><path d="M 1.578125 -8.421875 L 2.71875 -8.421875 L 2.71875 0 L 1.578125 0 Z M 2.15625 -10.25 C 1.914062 -10.25 1.71875 -10.328125 1.5625 -10.484375 C 1.40625 -10.648438 1.328125 -10.847656 1.328125 -11.078125 C 1.328125 -11.285156 1.40625 -11.46875 1.5625 -11.625 C 1.71875 -11.789062 1.914062 -11.875 2.15625 -11.875 C 2.382812 -11.875 2.578125 -11.796875 2.734375 -11.640625 C 2.898438 -11.484375 2.984375 -11.300781 2.984375 -11.09375 C 2.984375 -10.851562 2.898438 -10.648438 2.734375 -10.484375 C 2.578125 -10.328125 2.382812 -10.25 2.15625 -10.25 Z M 2.15625 -10.25 "/></g></g></g><g fill="#000000" fill-opacity="1"><g transform="translate(232.148478, 39.954971)"><g><path d="M 6.015625 -0.515625 C 5.804688 -0.316406 5.539062 -0.164062 5.21875 -0.0625 C 4.90625 0.03125 4.578125 0.078125 4.234375 0.078125 C 3.453125 0.078125 2.847656 -0.132812 2.421875 -0.5625 C 1.992188 -0.988281 1.78125 -1.59375 1.78125 -2.375 L 1.78125 -7.453125 L 0.265625 -7.453125 L 0.265625 -8.421875 L 1.78125 -8.421875 L 1.78125 -10.25 L 2.90625 -10.25 L 2.90625 -8.421875 L 5.46875 -8.421875 L 5.46875 -7.453125 L 2.90625 -7.453125 L 2.90625 -2.4375 C 2.90625 -1.9375 3.03125 -1.550781 3.28125 -1.28125 C 3.53125 -1.019531 3.894531 -0.890625 4.375 -0.890625 C 4.601562 -0.890625 4.828125 -0.925781 5.046875 -1 C 5.265625 -1.082031 5.453125 -1.191406 5.609375 -1.328125 Z M 6.015625 -0.515625 "/></g></g></g><g fill="#000000" fill-opacity="1"><g transform="translate(238.642919, 39.954971)"><g><path d="M 4.53125 -8.484375 C 5.625 -8.484375 6.460938 -8.207031 7.046875 -7.65625 C 7.640625 -7.101562 7.9375 -6.289062 7.9375 -5.21875 L 7.9375 0 L 6.84375 0 L 6.84375 -1.3125 C 6.59375 -0.875 6.21875 -0.53125 5.71875 -0.28125 C 5.21875 -0.0390625 4.628906 0.078125 3.953125 0.078125 C 3.015625 0.078125 2.265625 -0.144531 1.703125 -0.59375 C 1.148438 -1.039062 0.875 -1.632812 0.875 -2.375 C 0.875 -3.082031 1.132812 -3.65625 1.65625 -4.09375 C 2.175781 -4.53125 3 -4.75 4.125 -4.75 L 6.796875 -4.75 L 6.796875 -5.265625 C 6.796875 -5.992188 6.59375 -6.546875 6.1875 -6.921875 C 5.78125 -7.296875 5.191406 -7.484375 4.421875 -7.484375 C 3.878906 -7.484375 3.363281 -7.394531 2.875 -7.21875 C 2.382812 -7.039062 1.960938 -6.800781 1.609375 -6.5 L 1.109375 -7.34375 C 1.535156 -7.707031 2.046875 -7.988281 2.640625 -8.1875 C 3.234375 -8.382812 3.863281 -8.484375 4.53125 -8.484375 Z M 4.125 -0.8125 C 4.769531 -0.8125 5.320312 -0.957031 5.78125 -1.25 C 6.238281 -1.550781 6.578125 -1.976562 6.796875 -2.53125 L 6.796875 -3.90625 L 4.15625 -3.90625 C 2.71875 -3.90625 2 -3.40625 2 -2.40625 C 2 -1.90625 2.1875 -1.515625 2.5625 -1.234375 C 2.9375 -0.953125 3.457031 -0.8125 4.125 -0.8125 Z M 4.125 -0.8125 "/></g></g></g><g fill="#000000" fill-opacity="1"><g transform="translate(248.080655, 39.954971)"><g><path d="M 1.578125 -11.875 L 2.71875 -11.875 L 2.71875 0 L 1.578125 0 Z M 1.578125 -11.875 "/></g></g></g></svg>