<svg xmlns="http://www.w3.org/2000/svg" xmlns:xlink="http://www.w3.org/1999/xlink" width="185" zoomAndPan="magnify" viewBox="0 0 138.75 28.499999" height="38" preserveAspectRatio="xMidYMid meet" version="1.0"><defs><g/><clipPath id="1900127555"><path d="M 64.460938 7.285156 L 77.726562 7.285156 L 77.726562 20.554688 L 64.460938 20.554688 Z M 64.460938 7.285156 " clip-rule="nonzero"/></clipPath><clipPath id="03f3d04138"><rect x="0" width="63" y="0" height="21"/></clipPath></defs><g clip-path="url(#1900127555)"><path fill="#000000" d="M 71.8125 19.402344 C 70.089844 17.335938 68.75 14.417969 69.277344 13.886719 C 70.070312 13.085938 73.210938 12.941406 74.140625 13.667969 C 74.9375 14.285156 74.921875 14.308594 73.671875 14.324219 C 72.960938 14.332031 72.027344 14.664062 71.59375 15.0625 C 71.160156 15.457031 71.039062 15.632812 71.320312 15.441406 C 72.40625 14.714844 73.675781 15.453125 75.664062 17.964844 L 77.71875 20.554688 L 75.246094 20.554688 C 73.046875 20.554688 72.667969 20.425781 71.8125 19.402344 Z M 65.902344 10.003906 C 65.113281 8.757812 64.464844 7.640625 64.464844 7.515625 C 64.464844 7.390625 64.984375 7.285156 65.621094 7.285156 C 66.742188 7.285156 67.238281 7.703125 70.207031 11.121094 L 71.199219 12.261719 L 69.265625 12.261719 C 67.382812 12.261719 67.308594 12.210938 65.902344 10.003906 Z M 65.902344 10.003906 " fill-opacity="1" fill-rule="nonzero"/></g><g transform="matrix(1, 0, 0, 1, 5, 3)"><g clip-path="url(#03f3d04138)"><g fill="#000000" fill-opacity="1"><g transform="translate(0.62071, 16.046433)"><g><path d="M 1.796875 -11 L 2.953125 -11 L 2.953125 -1 L 9.109375 -1 L 9.109375 0 L 1.796875 0 Z M 1.796875 -11 "/></g></g></g><g fill="#000000" fill-opacity="1"><g transform="translate(9.899313, 16.046433)"><g><path d="M 4.4375 -8.328125 C 5.519531 -8.328125 6.347656 -8.054688 6.921875 -7.515625 C 7.492188 -6.972656 7.78125 -6.175781 7.78125 -5.125 L 7.78125 0 L 6.71875 0 L 6.71875 -1.28125 C 6.46875 -0.851562 6.097656 -0.519531 5.609375 -0.28125 C 5.128906 -0.0390625 4.550781 0.078125 3.875 0.078125 C 2.957031 0.078125 2.222656 -0.140625 1.671875 -0.578125 C 1.128906 -1.015625 0.859375 -1.597656 0.859375 -2.328125 C 0.859375 -3.023438 1.113281 -3.585938 1.625 -4.015625 C 2.132812 -4.441406 2.941406 -4.65625 4.046875 -4.65625 L 6.671875 -4.65625 L 6.671875 -5.171875 C 6.671875 -5.878906 6.472656 -6.414062 6.078125 -6.78125 C 5.679688 -7.15625 5.097656 -7.34375 4.328125 -7.34375 C 3.804688 -7.34375 3.304688 -7.253906 2.828125 -7.078125 C 2.347656 -6.910156 1.9375 -6.675781 1.59375 -6.375 L 1.078125 -7.203125 C 1.503906 -7.554688 2.007812 -7.832031 2.59375 -8.03125 C 3.175781 -8.226562 3.789062 -8.328125 4.4375 -8.328125 Z M 4.046875 -0.796875 C 4.679688 -0.796875 5.222656 -0.941406 5.671875 -1.234375 C 6.117188 -1.523438 6.453125 -1.941406 6.671875 -2.484375 L 6.671875 -3.828125 L 4.078125 -3.828125 C 2.671875 -3.828125 1.96875 -3.335938 1.96875 -2.359375 C 1.96875 -1.878906 2.148438 -1.5 2.515625 -1.21875 C 2.878906 -0.9375 3.390625 -0.796875 4.046875 -0.796875 Z M 4.046875 -0.796875 "/></g></g></g><g fill="#000000" fill-opacity="1"><g transform="translate(19.162197, 16.046433)"><g><path d="M 5.765625 -8.328125 C 6.796875 -8.328125 7.617188 -8.023438 8.234375 -7.421875 C 8.847656 -6.816406 9.15625 -5.941406 9.15625 -4.796875 L 9.15625 0 L 8.046875 0 L 8.046875 -4.671875 C 8.046875 -5.535156 7.828125 -6.191406 7.390625 -6.640625 C 6.960938 -7.085938 6.351562 -7.3125 5.5625 -7.3125 C 4.664062 -7.3125 3.957031 -7.046875 3.4375 -6.515625 C 2.925781 -5.992188 2.671875 -5.265625 2.671875 -4.328125 L 2.671875 0 L 1.546875 0 L 1.546875 -8.265625 L 2.625 -8.265625 L 2.625 -6.734375 C 2.925781 -7.234375 3.34375 -7.625 3.875 -7.90625 C 4.414062 -8.1875 5.046875 -8.328125 5.765625 -8.328125 Z M 5.765625 -8.328125 "/></g></g></g><g fill="#000000" fill-opacity="1"><g transform="translate(29.822379, 16.046433)"><g><path d="M 9.09375 -11.65625 L 9.09375 0 L 8.03125 0 L 8.03125 -1.640625 C 7.6875 -1.078125 7.238281 -0.648438 6.6875 -0.359375 C 6.144531 -0.0664062 5.53125 0.078125 4.84375 0.078125 C 4.0625 0.078125 3.359375 -0.0976562 2.734375 -0.453125 C 2.109375 -0.804688 1.613281 -1.300781 1.25 -1.9375 C 0.894531 -2.582031 0.71875 -3.3125 0.71875 -4.125 C 0.71875 -4.945312 0.894531 -5.675781 1.25 -6.3125 C 1.613281 -6.945312 2.109375 -7.441406 2.734375 -7.796875 C 3.359375 -8.148438 4.0625 -8.328125 4.84375 -8.328125 C 5.507812 -8.328125 6.109375 -8.1875 6.640625 -7.90625 C 7.179688 -7.625 7.628906 -7.21875 7.984375 -6.6875 L 7.984375 -11.65625 Z M 4.9375 -0.90625 C 5.507812 -0.90625 6.023438 -1.039062 6.484375 -1.3125 C 6.953125 -1.582031 7.320312 -1.960938 7.59375 -2.453125 C 7.863281 -2.941406 8 -3.5 8 -4.125 C 8 -4.757812 7.863281 -5.320312 7.59375 -5.8125 C 7.320312 -6.300781 6.953125 -6.675781 6.484375 -6.9375 C 6.023438 -7.207031 5.507812 -7.34375 4.9375 -7.34375 C 4.34375 -7.34375 3.8125 -7.207031 3.34375 -6.9375 C 2.882812 -6.675781 2.519531 -6.300781 2.25 -5.8125 C 1.988281 -5.320312 1.859375 -4.757812 1.859375 -4.125 C 1.859375 -3.5 1.988281 -2.941406 2.25 -2.453125 C 2.519531 -1.960938 2.882812 -1.582031 3.34375 -1.3125 C 3.8125 -1.039062 4.34375 -0.90625 4.9375 -0.90625 Z M 4.9375 -0.90625 "/></g></g></g><g fill="#000000" fill-opacity="1"><g transform="translate(40.466854, 16.046433)"><g><path d="M 8.75 -3.78125 L 1.84375 -3.78125 C 1.90625 -2.925781 2.234375 -2.234375 2.828125 -1.703125 C 3.421875 -1.171875 4.175781 -0.90625 5.09375 -0.90625 C 5.601562 -0.90625 6.070312 -0.992188 6.5 -1.171875 C 6.925781 -1.359375 7.296875 -1.632812 7.609375 -2 L 8.25 -1.265625 C 7.875 -0.828125 7.410156 -0.492188 6.859375 -0.265625 C 6.316406 -0.0351562 5.71875 0.078125 5.0625 0.078125 C 4.207031 0.078125 3.453125 -0.0976562 2.796875 -0.453125 C 2.148438 -0.816406 1.640625 -1.316406 1.265625 -1.953125 C 0.898438 -2.597656 0.71875 -3.320312 0.71875 -4.125 C 0.71875 -4.9375 0.894531 -5.660156 1.25 -6.296875 C 1.601562 -6.929688 2.082031 -7.425781 2.6875 -7.78125 C 3.300781 -8.144531 3.992188 -8.328125 4.765625 -8.328125 C 5.523438 -8.328125 6.207031 -8.144531 6.8125 -7.78125 C 7.414062 -7.425781 7.890625 -6.929688 8.234375 -6.296875 C 8.585938 -5.671875 8.765625 -4.945312 8.765625 -4.125 Z M 4.765625 -7.359375 C 3.960938 -7.359375 3.289062 -7.101562 2.75 -6.59375 C 2.21875 -6.09375 1.914062 -5.429688 1.84375 -4.609375 L 7.6875 -4.609375 C 7.613281 -5.429688 7.304688 -6.09375 6.765625 -6.59375 C 6.234375 -7.101562 5.566406 -7.359375 4.765625 -7.359375 Z M 4.765625 -7.359375 "/></g></g></g><g fill="#000000" fill-opacity="1"><g transform="translate(49.713942, 16.046433)"><g><path d="M 6.8125 0 L 4.1875 -3.453125 L 1.546875 0 L 0.296875 0 L 3.5625 -4.234375 L 0.453125 -8.265625 L 1.71875 -8.265625 L 4.1875 -5.03125 L 6.671875 -8.265625 L 7.90625 -8.265625 L 4.796875 -4.234375 L 8.09375 0 Z M 6.8125 0 "/></g></g></g><g fill="#000000" fill-opacity="1"><g transform="translate(58.107211, 16.046433)"><g/></g></g></g></g><g fill="#000000" fill-opacity="1"><g transform="translate(76.020763, 18.762711)"><g/></g></g><g fill="#000000" fill-opacity="1"><g transform="translate(80.143742, 18.762711)"><g><path d="M 1.796875 -11 L 6.265625 -11 C 7.429688 -11 8.457031 -10.765625 9.34375 -10.296875 C 10.238281 -9.835938 10.929688 -9.191406 11.421875 -8.359375 C 11.921875 -7.523438 12.171875 -6.570312 12.171875 -5.5 C 12.171875 -4.425781 11.921875 -3.472656 11.421875 -2.640625 C 10.929688 -1.816406 10.238281 -1.171875 9.34375 -0.703125 C 8.457031 -0.234375 7.429688 0 6.265625 0 L 1.796875 0 Z M 6.203125 -1 C 7.171875 -1 8.015625 -1.191406 8.734375 -1.578125 C 9.460938 -1.960938 10.023438 -2.492188 10.421875 -3.171875 C 10.816406 -3.847656 11.015625 -4.625 11.015625 -5.5 C 11.015625 -6.382812 10.816406 -7.160156 10.421875 -7.828125 C 10.023438 -8.503906 9.460938 -9.035156 8.734375 -9.421875 C 8.015625 -9.804688 7.171875 -10 6.203125 -10 L 2.953125 -10 L 2.953125 -1 Z M 6.203125 -1 "/></g></g></g><g fill="#000000" fill-opacity="1"><g transform="translate(93.128756, 18.762711)"><g><path d="M 1.5625 -8.265625 L 2.671875 -8.265625 L 2.671875 0 L 1.5625 0 Z M 2.125 -10.078125 C 1.894531 -10.078125 1.703125 -10.15625 1.546875 -10.3125 C 1.390625 -10.46875 1.3125 -10.65625 1.3125 -10.875 C 1.3125 -11.082031 1.390625 -11.265625 1.546875 -11.421875 C 1.703125 -11.578125 1.894531 -11.65625 2.125 -11.65625 C 2.351562 -11.65625 2.546875 -11.578125 2.703125 -11.421875 C 2.867188 -11.273438 2.953125 -11.097656 2.953125 -10.890625 C 2.953125 -10.660156 2.867188 -10.46875 2.703125 -10.3125 C 2.546875 -10.15625 2.351562 -10.078125 2.125 -10.078125 Z M 2.125 -10.078125 "/></g></g></g><g fill="#000000" fill-opacity="1"><g transform="translate(97.357534, 18.762711)"><g><path d="M 9.21875 -8.265625 L 9.21875 -1 C 9.21875 0.394531 8.875 1.429688 8.1875 2.109375 C 7.5 2.785156 6.460938 3.125 5.078125 3.125 C 4.304688 3.125 3.578125 3.007812 2.890625 2.78125 C 2.210938 2.5625 1.65625 2.253906 1.21875 1.859375 L 1.796875 1 C 2.191406 1.363281 2.675781 1.644531 3.25 1.84375 C 3.820312 2.039062 4.421875 2.140625 5.046875 2.140625 C 6.097656 2.140625 6.867188 1.894531 7.359375 1.40625 C 7.847656 0.914062 8.09375 0.160156 8.09375 -0.859375 L 8.09375 -1.921875 C 7.75 -1.390625 7.296875 -0.988281 6.734375 -0.71875 C 6.171875 -0.445312 5.550781 -0.3125 4.875 -0.3125 C 4.09375 -0.3125 3.382812 -0.484375 2.75 -0.828125 C 2.125 -1.171875 1.628906 -1.644531 1.265625 -2.25 C 0.898438 -2.863281 0.71875 -3.5625 0.71875 -4.34375 C 0.71875 -5.113281 0.898438 -5.800781 1.265625 -6.40625 C 1.628906 -7.019531 2.125 -7.492188 2.75 -7.828125 C 3.375 -8.160156 4.082031 -8.328125 4.875 -8.328125 C 5.570312 -8.328125 6.203125 -8.1875 6.765625 -7.90625 C 7.335938 -7.625 7.796875 -7.21875 8.140625 -6.6875 L 8.140625 -8.265625 Z M 4.984375 -1.296875 C 5.578125 -1.296875 6.113281 -1.425781 6.59375 -1.6875 C 7.082031 -1.945312 7.457031 -2.304688 7.71875 -2.765625 C 7.988281 -3.222656 8.125 -3.75 8.125 -4.34375 C 8.125 -4.925781 7.988281 -5.445312 7.71875 -5.90625 C 7.457031 -6.363281 7.085938 -6.71875 6.609375 -6.96875 C 6.128906 -7.226562 5.585938 -7.359375 4.984375 -7.359375 C 4.390625 -7.359375 3.851562 -7.234375 3.375 -6.984375 C 2.894531 -6.734375 2.519531 -6.375 2.25 -5.90625 C 1.988281 -5.445312 1.859375 -4.925781 1.859375 -4.34375 C 1.859375 -3.75 1.988281 -3.222656 2.25 -2.765625 C 2.519531 -2.304688 2.894531 -1.945312 3.375 -1.6875 C 3.851562 -1.425781 4.390625 -1.296875 4.984375 -1.296875 Z M 4.984375 -1.296875 "/></g></g></g><g fill="#000000" fill-opacity="1"><g transform="translate(108.141699, 18.762711)"><g><path d="M 1.5625 -8.265625 L 2.671875 -8.265625 L 2.671875 0 L 1.5625 0 Z M 2.125 -10.078125 C 1.894531 -10.078125 1.703125 -10.15625 1.546875 -10.3125 C 1.390625 -10.46875 1.3125 -10.65625 1.3125 -10.875 C 1.3125 -11.082031 1.390625 -11.265625 1.546875 -11.421875 C 1.703125 -11.578125 1.894531 -11.65625 2.125 -11.65625 C 2.351562 -11.65625 2.546875 -11.578125 2.703125 -11.421875 C 2.867188 -11.273438 2.953125 -11.097656 2.953125 -10.890625 C 2.953125 -10.660156 2.867188 -10.46875 2.703125 -10.3125 C 2.546875 -10.15625 2.351562 -10.078125 2.125 -10.078125 Z M 2.125 -10.078125 "/></g></g></g><g fill="#000000" fill-opacity="1"><g transform="translate(112.370477, 18.762711)"><g><path d="M 5.90625 -0.5 C 5.695312 -0.3125 5.4375 -0.164062 5.125 -0.0625 C 4.820312 0.03125 4.503906 0.078125 4.171875 0.078125 C 3.390625 0.078125 2.789062 -0.128906 2.375 -0.546875 C 1.957031 -0.960938 1.75 -1.554688 1.75 -2.328125 L 1.75 -7.328125 L 0.265625 -7.328125 L 0.265625 -8.265625 L 1.75 -8.265625 L 1.75 -10.078125 L 2.859375 -10.078125 L 2.859375 -8.265625 L 5.375 -8.265625 L 5.375 -7.328125 L 2.859375 -7.328125 L 2.859375 -2.390625 C 2.859375 -1.898438 2.976562 -1.523438 3.21875 -1.265625 C 3.46875 -1.003906 3.828125 -0.875 4.296875 -0.875 C 4.523438 -0.875 4.742188 -0.910156 4.953125 -0.984375 C 5.171875 -1.054688 5.359375 -1.160156 5.515625 -1.296875 Z M 5.90625 -0.5 "/></g></g></g><g fill="#000000" fill-opacity="1"><g transform="translate(118.752945, 18.762711)"><g><path d="M 4.453125 -8.328125 C 5.523438 -8.328125 6.347656 -8.054688 6.921875 -7.515625 C 7.503906 -6.984375 7.796875 -6.1875 7.796875 -5.125 L 7.796875 0 L 6.734375 0 L 6.734375 -1.28125 C 6.472656 -0.851562 6.097656 -0.519531 5.609375 -0.28125 C 5.128906 -0.0390625 4.550781 0.078125 3.875 0.078125 C 2.957031 0.078125 2.222656 -0.140625 1.671875 -0.578125 C 1.128906 -1.015625 0.859375 -1.597656 0.859375 -2.328125 C 0.859375 -3.023438 1.113281 -3.585938 1.625 -4.015625 C 2.132812 -4.453125 2.945312 -4.671875 4.0625 -4.671875 L 6.6875 -4.671875 L 6.6875 -5.171875 C 6.6875 -5.878906 6.484375 -6.421875 6.078125 -6.796875 C 5.679688 -7.171875 5.101562 -7.359375 4.34375 -7.359375 C 3.8125 -7.359375 3.304688 -7.269531 2.828125 -7.09375 C 2.347656 -6.925781 1.9375 -6.6875 1.59375 -6.375 L 1.078125 -7.21875 C 1.503906 -7.570312 2.007812 -7.84375 2.59375 -8.03125 C 3.175781 -8.226562 3.796875 -8.328125 4.453125 -8.328125 Z M 4.0625 -0.796875 C 4.6875 -0.796875 5.222656 -0.941406 5.671875 -1.234375 C 6.117188 -1.523438 6.457031 -1.941406 6.6875 -2.484375 L 6.6875 -3.828125 L 4.09375 -3.828125 C 2.675781 -3.828125 1.96875 -3.335938 1.96875 -2.359375 C 1.96875 -1.878906 2.148438 -1.5 2.515625 -1.21875 C 2.878906 -0.9375 3.394531 -0.796875 4.0625 -0.796875 Z M 4.0625 -0.796875 "/></g></g></g><g fill="#000000" fill-opacity="1"><g transform="translate(128.027961, 18.762711)"><g><path d="M 1.5625 -11.65625 L 2.671875 -11.65625 L 2.671875 0 L 1.5625 0 Z M 1.5625 -11.65625 "/></g></g></g></svg>